<svg xmlns="http://www.w3.org/2000/svg" width="293" height="293" viewBox="0 0 293 293" fill="none"><circle cx="146.5" cy="146.5" r="146.5" fill="#323E55"></circle><path d="M58.62 211V206.38C66.54 206.38 71.16 204.84 72.48 201.76V201.98L135.62 89.34C133.86 87.7267 129.68 86.92 123.08 86.92V82.3H216.36V103.64H211.74C211.74 95.72 210.273 91.1 207.34 89.78H169.5V140.38H192.6C195.533 139.06 197 134.44 197 126.52H201.62V161.72H197C197 153.8 195.533 149.18 192.6 147.86H169.5V203.52H211.96C215.627 201.907 218.927 197.287 221.86 189.66H226.26L220.98 211H127.7V206.38C135.62 206.38 140.24 204.913 141.56 201.98V170.08H99.1L81.06 202.42C82.5267 205.06 87.0733 206.38 94.7 206.38V211H77.98C78.7133 208.507 79.4467 206.16 80.18 203.96L76.22 211H58.62ZM103.28 162.82H141.56V94.4L103.28 162.82Z" fill="#EEE5D6"></path></svg>