<svg xmlns="http://www.w3.org/2000/svg" width="512" height="512" viewBox="0 0 512 512" fill="none"><path d="M512 256C512 397.385 397.385 512 256 512C114.615 512 0 397.385 0 256C0 114.615 114.615 0 256 0C397.385 0 512 114.615 512 256Z" fill="#454438"></path><path d="M96 380V371.097C111.26 371.097 120.161 368.13 122.705 362.195V362.619L244.36 145.566C240.969 142.457 232.915 140.903 220.198 140.903V132H399.925V173.121H391.024C391.024 157.86 388.198 148.957 382.546 146.414H309.638V243.918H354.146C359.797 241.374 362.623 232.472 362.623 217.21H371.525V285.039H362.623C362.623 269.778 359.797 260.875 354.146 258.332H309.638V365.586H391.448C398.512 362.477 404.871 353.575 410.522 338.879H419L408.827 380H229.1V371.097C244.36 371.097 253.261 368.271 255.804 362.619V301.149H173.995L139.236 363.467C142.062 368.554 150.822 371.097 165.517 371.097V380H133.302H131.5H129.911H96ZM182.049 287.159H255.804V155.316L182.049 287.159Z" fill="#FFFCF8"></path></svg>