<svg xmlns="http://www.w3.org/2000/svg" width="276" height="85" viewBox="0 0 276 85" fill="none"><path d="M33.024 57.66V55.644C35.968 55.644 37.824 55.26 38.592 54.492L33.216 39.804H14.784L9.792 53.916C10.432 55.068 12.416 55.644 15.744 55.644V57.66H0V55.644C3.52 55.644 5.536 54.972 6.048 53.628L24.672 1.5H32.448L51.264 53.628C51.712 54.972 53.76 55.644 57.408 55.644V57.66H33.024ZM23.904 14.268L15.936 36.636H32.064L23.904 14.268Z" fill="#FFFCF8"></path><path d="M68.871 57.66V55.644C72.327 55.644 74.343 55.004 74.919 53.724V5.436C74.343 4.156 72.327 3.516 68.871 3.516V1.5H85.095L113.511 40.38V5.436C112.935 4.156 110.919 3.516 107.463 3.516V1.5H122.823V3.516C119.367 3.516 117.351 4.156 116.775 5.436V57.66H112.551L78.183 10.14V53.724C78.759 55.004 80.775 55.644 84.231 55.644V57.66H68.871Z" fill="#FFFCF8"></path><path d="M138.283 57.66V55.644C141.739 55.644 143.755 55.004 144.331 53.724V5.436C143.755 4.156 141.739 3.516 138.283 3.516V1.5H154.508L182.924 40.38V5.436C182.348 4.156 180.332 3.516 176.876 3.516V1.5H192.236V3.516C188.78 3.516 186.764 4.156 186.188 5.436V57.66H181.964L147.596 10.14V53.724C148.172 55.004 150.187 55.644 153.643 55.644V57.66H138.283Z" fill="#FFFCF8"></path><path fill-rule="evenodd" clip-rule="evenodd" d="M199.156 59.16V54.144H200.656C202.31 54.144 203.496 53.9802 204.286 53.717C205.075 53.4539 205.271 53.164 205.325 53.0371L205.567 53.0868L205.396 52.9906L232.142 5.27576C232.105 5.26804 232.067 5.26039 232.028 5.25283C231.246 5.10191 230.175 5.016 228.784 5.016H227.284V0H270.988V12.312H265.972V10.812C265.972 9.15352 265.816 7.95986 265.562 7.16187C265.403 6.65879 265.234 6.39852 265.108 6.264H250.54V25.344H258.676C258.802 25.2095 258.971 24.9492 259.13 24.4461C259.384 23.6481 259.54 22.4545 259.54 20.796V19.296H264.556V37.656H259.54V36.156C259.54 34.4975 259.384 33.3039 259.13 32.5059C258.971 32.0028 258.802 31.7425 258.676 31.608H250.54V52.896H267.211C268.168 52.3317 269.325 50.8336 270.488 47.8095L270.858 46.848H275.724L272.678 59.16H229.3V54.144H230.8C232.458 54.144 233.652 53.9876 234.45 53.7343C234.953 53.5746 235.213 53.4059 235.348 53.2797V41.304H219.201L212.343 53.598C212.476 53.6555 212.637 53.7144 212.834 53.7715C213.633 54.0035 214.802 54.144 216.4 54.144H217.9V59.16H205.376L205.204 59.4677V59.16H199.156ZM208.336 57.66L210.064 54.588C209.968 54.8755 209.872 55.1687 209.777 55.4677C209.704 55.6951 209.631 55.9259 209.558 56.16C209.407 56.6457 209.255 57.1457 209.104 57.66H216.4V55.644C213.072 55.644 211.088 55.068 210.448 53.916L218.32 39.804H236.848V53.724C236.272 55.004 234.256 55.644 230.8 55.644V57.66H271.504L273.808 48.348H271.888C270.608 51.676 269.168 53.692 267.568 54.396H249.04V30.108H259.12C260.4 30.684 261.04 32.7 261.04 36.156H263.056V20.796H261.04C261.04 24.252 260.4 26.268 259.12 26.844H249.04V4.764H265.552C266.832 5.34 267.472 7.356 267.472 10.812H269.488V1.5H228.784V3.516C230.558 3.516 231.931 3.64954 232.904 3.91662C233.053 3.95752 233.192 4.00155 233.322 4.04872C233.722 4.19359 234.033 4.36802 234.256 4.572L206.704 53.724V53.628C206.693 53.6538 206.681 53.6793 206.669 53.7045C206.666 53.711 206.663 53.7175 206.66 53.724C206.403 54.2463 205.918 54.662 205.204 54.9711C204.169 55.4197 202.653 55.644 200.656 55.644V57.66H208.336ZM236.848 36.636H220.144L236.848 6.78V36.636ZM235.348 12.5332L222.702 35.136H235.348V12.5332Z" fill="#FFFCF8"></path><path d="M86.6587 84.66H85.3306V79.2772H79.3306V84.66H78.0024V73.2382H79.3306V78.1053H85.3306V73.2382H86.6587V84.66Z" fill="#FFFCF8"></path><path d="M104.586 78.9335C104.586 79.8137 104.474 80.6158 104.25 81.3397C104.026 82.0585 103.692 82.6783 103.25 83.1991C102.812 83.7147 102.268 84.1132 101.617 84.3944C100.966 84.6757 100.211 84.8163 99.3512 84.8163C98.4658 84.8163 97.6923 84.6757 97.0309 84.3944C96.3746 84.1132 95.8278 83.7121 95.3903 83.1913C94.958 82.6705 94.6324 82.0481 94.4137 81.3241C94.2002 80.6001 94.0934 79.7981 94.0934 78.9178C94.0934 77.7512 94.2861 76.7277 94.6715 75.8475C95.0569 74.9673 95.6403 74.2824 96.4215 73.7928C97.208 73.3033 98.1923 73.0585 99.3746 73.0585C100.505 73.0585 101.455 73.3007 102.226 73.785C103.002 74.2694 103.588 74.9517 103.984 75.8319C104.385 76.7069 104.586 77.7408 104.586 78.9335ZM95.4918 78.9335C95.4918 79.9022 95.6298 80.7408 95.9059 81.4491C96.1819 82.1574 96.6038 82.7043 97.1715 83.0897C97.7444 83.4751 98.471 83.6678 99.3512 83.6678C100.237 83.6678 100.961 83.4751 101.523 83.0897C102.091 82.7043 102.51 82.1574 102.781 81.4491C103.052 80.7408 103.187 79.9022 103.187 78.9335C103.187 77.4595 102.877 76.3085 102.257 75.4803C101.643 74.647 100.682 74.2303 99.3746 74.2303C98.4892 74.2303 97.76 74.4205 97.1871 74.8007C96.6142 75.1809 96.1871 75.7225 95.9059 76.4257C95.6298 77.1236 95.4918 77.9595 95.4918 78.9335Z" fill="#FFFCF8"></path><path d="M115.52 84.66H114.184V74.41H110.591V73.2382H119.098V74.41H115.52V84.66Z" fill="#FFFCF8"></path><path d="M132.064 84.66H125.705V73.2382H132.064V74.41H127.033V78.1053H131.775V79.2616H127.033V83.4882H132.064V84.66Z" fill="#FFFCF8"></path><path d="M139.476 84.66V73.2382H140.804V83.4725H145.874V84.66H139.476Z" fill="#FFFCF8"></path><path d="M168.368 81.4882C168.368 82.1652 168.204 82.7538 167.876 83.2538C167.548 83.7538 167.069 84.1392 166.439 84.41C165.814 84.6809 165.053 84.8163 164.157 84.8163C163.762 84.8163 163.374 84.7902 162.993 84.7382C162.618 84.6861 162.256 84.6106 161.907 84.5116C161.564 84.4074 161.236 84.2798 160.923 84.1288V81.8788C161.465 82.1184 162.027 82.3345 162.611 82.5272C163.194 82.7199 163.772 82.8163 164.345 82.8163C164.741 82.8163 165.058 82.7642 165.298 82.66C165.543 82.5559 165.72 82.4126 165.829 82.2303C165.939 82.0481 165.993 81.8397 165.993 81.6053C165.993 81.3189 165.897 81.0741 165.704 80.871C165.512 80.6678 165.246 80.4777 164.907 80.3007C164.574 80.1236 164.197 79.9335 163.775 79.7303C163.509 79.6053 163.22 79.4543 162.907 79.2772C162.595 79.0949 162.298 78.8736 162.017 78.6132C161.736 78.3527 161.504 78.0376 161.322 77.6678C161.144 77.2928 161.056 76.8449 161.056 76.3241C161.056 75.6418 161.212 75.0585 161.525 74.5741C161.837 74.0897 162.282 73.7199 162.861 73.4647C163.444 73.2043 164.131 73.0741 164.923 73.0741C165.517 73.0741 166.082 73.1444 166.618 73.285C167.16 73.4205 167.725 73.6184 168.314 73.8788L167.532 75.7616C167.006 75.5481 166.535 75.384 166.118 75.2694C165.702 75.1496 165.277 75.0897 164.845 75.0897C164.543 75.0897 164.285 75.1392 164.072 75.2382C163.858 75.3319 163.697 75.4673 163.587 75.6444C163.478 75.8163 163.423 76.0168 163.423 76.246C163.423 76.5168 163.501 76.746 163.657 76.9335C163.819 77.1158 164.058 77.2928 164.376 77.4647C164.699 77.6366 165.1 77.8371 165.579 78.0663C166.163 78.3423 166.66 78.6314 167.072 78.9335C167.488 79.2303 167.808 79.5819 168.032 79.9882C168.256 80.3892 168.368 80.8892 168.368 81.4882Z" fill="#FFFCF8"></path><path d="M184.506 84.66H181.756L178.764 79.8475L177.741 80.5819V84.66H175.319V73.2382H177.741V78.4647C177.902 78.2408 178.061 78.0168 178.217 77.7928C178.373 77.5689 178.532 77.3449 178.694 77.121L181.787 73.2382H184.475L180.491 78.2928L184.506 84.66Z" fill="#FFFCF8"></path><path d="M195.23 84.66H192.808V75.2538H189.707V73.2382H198.332V75.2538H195.23V84.66Z" fill="#FFFCF8"></path><path fill-rule="evenodd" clip-rule="evenodd" d="M57.4399 79.41L1.43994 79.41L1.43994 77.91L57.4399 77.91L57.4399 79.41Z" fill="#FFFCF8"></path><path fill-rule="evenodd" clip-rule="evenodd" d="M275.44 79.41L219.44 79.41L219.44 77.91L275.44 77.91L275.44 79.41Z" fill="#FFFCF8"></path></svg>