<svg xmlns="http://www.w3.org/2000/svg" width="277" height="86" viewBox="0 0 277 86" fill="none"><path d="M33.5841 58V55.984C36.5281 55.984 38.3841 55.6 39.1521 54.832L33.7761 40.144H15.3441L10.3521 54.256C10.9921 55.408 12.9761 55.984 16.3041 55.984V58H0.560059V55.984C4.08006 55.984 6.09606 55.312 6.60806 53.968L25.2321 1.83997H33.0081L51.8241 53.968C52.2721 55.312 54.3201 55.984 57.9681 55.984V58H33.5841ZM24.4641 14.608L16.4961 36.976H32.6241L24.4641 14.608Z" fill="#454438"></path><path d="M69.4311 58V55.984C72.8871 55.984 74.9031 55.344 75.4791 54.064V5.77597C74.9031 4.49597 72.8871 3.85597 69.4311 3.85597V1.83997H85.6551L114.071 40.72V5.77597C113.495 4.49597 111.479 3.85597 108.023 3.85597V1.83997H123.383V3.85597C119.927 3.85597 117.911 4.49597 117.335 5.77597V58H113.111L78.7431 10.48V54.064C79.3191 55.344 81.3351 55.984 84.7911 55.984V58H69.4311Z" fill="#454438"></path><path d="M138.844 58V55.984C142.3 55.984 144.316 55.344 144.892 54.064V5.77597C144.316 4.49597 142.3 3.85597 138.844 3.85597V1.83997H155.068L183.484 40.72V5.77597C182.908 4.49597 180.892 3.85597 177.436 3.85597V1.83997H192.796V3.85597C189.34 3.85597 187.324 4.49597 186.748 5.77597V58H182.524L148.156 10.48V54.064C148.732 55.344 150.748 55.984 154.204 55.984V58H138.844Z" fill="#454438"></path><path fill-rule="evenodd" clip-rule="evenodd" d="M199.716 59.5V54.484H201.216C202.871 54.484 204.056 54.3201 204.846 54.0569C205.635 53.7938 205.831 53.504 205.885 53.3771L206.127 53.4268L205.956 53.3305L232.702 5.61572C232.665 5.60801 232.627 5.60036 232.588 5.59279C231.806 5.44187 230.735 5.35597 229.344 5.35597H227.844V0.339966H271.548V12.652H266.532V11.152C266.532 9.49349 266.376 8.29982 266.122 7.50184C265.963 6.99875 265.794 6.73849 265.668 6.60397H251.1V25.684H259.236C259.362 25.5494 259.531 25.2892 259.69 24.7861C259.944 23.9881 260.1 22.7944 260.1 21.136V19.636H265.116V37.996H260.1V36.496C260.1 34.8375 259.944 33.6438 259.69 32.8458C259.531 32.3428 259.362 32.0825 259.236 31.948H251.1V53.236H267.771C268.728 52.6717 269.885 51.1735 271.048 48.1495L271.418 47.188H276.284L273.238 59.5H229.86V54.484H231.36C233.019 54.484 234.212 54.3276 235.01 54.0743C235.513 53.9146 235.774 53.7458 235.908 53.6196V41.644H219.761L212.903 53.938C213.036 53.9955 213.198 54.0543 213.394 54.1115C214.193 54.3435 215.363 54.484 216.96 54.484H218.46V59.5H205.937L205.764 59.8076V59.5H199.716ZM208.896 58L210.624 54.928C210.528 55.2155 210.432 55.5087 210.337 55.8076C210.264 56.0351 210.191 56.2659 210.118 56.5C209.967 56.9857 209.815 57.4857 209.664 58H216.96V55.984C213.632 55.984 211.648 55.408 211.008 54.256L218.88 40.144H237.408V54.064C236.832 55.344 234.816 55.984 231.36 55.984V58H272.064L274.368 48.688H272.448C271.168 52.016 269.728 54.032 268.128 54.736H249.6V30.448H259.68C260.96 31.024 261.6 33.04 261.6 36.496H263.616V21.136H261.6C261.6 24.592 260.96 26.608 259.68 27.184H249.6V5.10397H266.112C267.392 5.67997 268.032 7.69596 268.032 11.152H270.048V1.83997H229.344V3.85597C231.118 3.85597 232.491 3.98951 233.464 4.25658C233.613 4.29748 233.752 4.34152 233.883 4.38868C234.282 4.53356 234.594 4.70799 234.816 4.91197L207.264 54.064V53.968C207.253 53.9937 207.241 54.0192 207.229 54.0445C207.226 54.051 207.223 54.0575 207.22 54.064C206.963 54.5862 206.478 55.0019 205.764 55.3111C204.729 55.7597 203.213 55.984 201.216 55.984V58H208.896ZM237.408 36.976H220.704L237.408 7.11997V36.976ZM235.908 12.8731L223.262 35.476H235.908V12.8731Z" fill="#454438"></path><path d="M87.2188 85H85.8906V79.6172H79.8906V85H78.5625V73.5781H79.8906V78.4453H85.8906V73.5781H87.2188V85Z" fill="#454438"></path><path d="M105.146 79.2734C105.146 80.1536 105.034 80.9557 104.81 81.6797C104.586 82.3984 104.252 83.0182 103.81 83.5391C103.372 84.0547 102.828 84.4531 102.177 84.7344C101.526 85.0156 100.771 85.1562 99.9113 85.1562C99.0258 85.1562 98.2524 85.0156 97.5909 84.7344C96.9347 84.4531 96.3878 84.0521 95.9503 83.5312C95.518 83.0104 95.1925 82.388 94.9738 81.6641C94.7602 80.9401 94.6534 80.138 94.6534 79.2578C94.6534 78.0911 94.8461 77.0677 95.2316 76.1875C95.617 75.3073 96.2003 74.6224 96.9816 74.1328C97.768 73.6432 98.7524 73.3984 99.9347 73.3984C101.065 73.3984 102.015 73.6406 102.786 74.125C103.562 74.6094 104.148 75.2917 104.544 76.1719C104.945 77.0469 105.146 78.0807 105.146 79.2734ZM96.0519 79.2734C96.0519 80.2422 96.1899 81.0807 96.4659 81.7891C96.742 82.4974 97.1639 83.0443 97.7316 83.4297C98.3045 83.8151 99.031 84.0078 99.9113 84.0078C100.797 84.0078 101.521 83.8151 102.083 83.4297C102.651 83.0443 103.07 82.4974 103.341 81.7891C103.612 81.0807 103.747 80.2422 103.747 79.2734C103.747 77.7995 103.437 76.6484 102.818 75.8203C102.203 74.987 101.242 74.5703 99.9347 74.5703C99.0493 74.5703 98.3201 74.7604 97.7472 75.1406C97.1743 75.5208 96.7472 76.0625 96.4659 76.7656C96.1899 77.4635 96.0519 78.2995 96.0519 79.2734Z" fill="#454438"></path><path d="M116.08 85H114.744V74.75H111.151V73.5781H119.658V74.75H116.08V85Z" fill="#454438"></path><path d="M132.624 85H126.265V73.5781H132.624V74.75H127.593V78.4453H132.335V79.6016H127.593V83.8281H132.624V85Z" fill="#454438"></path><path d="M140.036 85V73.5781H141.364V83.8125H146.434V85H140.036Z" fill="#454438"></path><path d="M168.928 81.8281C168.928 82.5052 168.764 83.0938 168.436 83.5938C168.108 84.0938 167.629 84.4792 166.999 84.75C166.374 85.0208 165.613 85.1562 164.717 85.1562C164.322 85.1562 163.934 85.1302 163.553 85.0781C163.178 85.026 162.816 84.9505 162.467 84.8516C162.124 84.7474 161.796 84.6198 161.483 84.4688V82.2188C162.025 82.4583 162.587 82.6745 163.171 82.8672C163.754 83.0599 164.332 83.1562 164.905 83.1562C165.301 83.1562 165.619 83.1042 165.858 83C166.103 82.8958 166.28 82.7526 166.389 82.5703C166.499 82.388 166.553 82.1797 166.553 81.9453C166.553 81.6589 166.457 81.4141 166.264 81.2109C166.072 81.0078 165.806 80.8177 165.467 80.6406C165.134 80.4635 164.757 80.2734 164.335 80.0703C164.069 79.9453 163.78 79.7943 163.467 79.6172C163.155 79.4349 162.858 79.2135 162.577 78.9531C162.296 78.6927 162.064 78.3776 161.882 78.0078C161.704 77.6328 161.616 77.1849 161.616 76.6641C161.616 75.9818 161.772 75.3984 162.085 74.9141C162.397 74.4297 162.842 74.0599 163.421 73.8047C164.004 73.5443 164.691 73.4141 165.483 73.4141C166.077 73.4141 166.642 73.4844 167.178 73.625C167.72 73.7604 168.285 73.9583 168.874 74.2188L168.092 76.1016C167.566 75.888 167.095 75.724 166.678 75.6094C166.262 75.4896 165.837 75.4297 165.405 75.4297C165.103 75.4297 164.845 75.4792 164.632 75.5781C164.418 75.6719 164.257 75.8073 164.147 75.9844C164.038 76.1562 163.983 76.3568 163.983 76.5859C163.983 76.8568 164.061 77.0859 164.217 77.2734C164.379 77.4557 164.619 77.6328 164.936 77.8047C165.259 77.9766 165.66 78.1771 166.139 78.4062C166.723 78.6823 167.22 78.9714 167.632 79.2734C168.048 79.5703 168.369 79.9219 168.592 80.3281C168.816 80.7292 168.928 81.2292 168.928 81.8281Z" fill="#454438"></path><path d="M185.066 85H182.316L179.324 80.1875L178.301 80.9219V85H175.879V73.5781H178.301V78.8047C178.462 78.5807 178.621 78.3568 178.777 78.1328C178.933 77.9089 179.092 77.6849 179.254 77.4609L182.348 73.5781H185.035L181.051 78.6328L185.066 85Z" fill="#454438"></path><path d="M195.79 85H193.368V75.5938H190.267V73.5781H198.892V75.5938H195.79V85Z" fill="#454438"></path><path fill-rule="evenodd" clip-rule="evenodd" d="M58 79.75L2 79.75L2 78.25L58 78.25L58 79.75Z" fill="#454438"></path><path fill-rule="evenodd" clip-rule="evenodd" d="M276 79.75L220 79.75L220 78.25L276 78.25L276 79.75Z" fill="#454438"></path></svg>